<?xml version="1.0" encoding="UTF-8"?>
<svg id="_レイヤー_2" data-name="レイヤー 2" xmlns="http://www.w3.org/2000/svg" width="233.28" height="30.11" viewBox="0 0 233.28 30.11">
  <defs>
    <style>
      .cls-1 {
        fill: #00aeca;
      }

      .cls-1, .cls-2 {
        fill-rule: evenodd;
      }
    </style>
  </defs>
  <g id="_レイヤー_1-2" data-name="レイヤー 1">
    <path class="cls-2" d="M59.46,8.26l-2.29,11.33c-.42,2.09-.63,3.49-.63,4.19,0,1.61.46,2.89,1.39,3.85.92.96,2.19,1.44,3.8,1.44,2.55,0,4.91-1.08,7.07-3.23h0l-.55,2.76h4.95l4.1-20.32h-5.3l-1.96,9.68c-.27,1.33-.52,2.28-.76,2.87-.33.79-.69,1.43-1.07,1.91s-.81.92-1.29,1.29c-.48.37-.95.65-1.4.84-.46.18-.92.27-1.39.27-.65,0-1.19-.21-1.61-.63-.42-.42-.63-.92-.63-1.51,0-.36.15-1.26.44-2.7l2.42-12.04h-5.3Z"/>
    <path class="cls-2" d="M103.56,7.78c-2.14,0-4.19.98-6.13,2.95l.5-2.47h-4.99l-4.1,20.32h5.3l1.88-9.34c.33-1.62.57-2.66.72-3.12.33-.98.73-1.79,1.19-2.41.46-.63,1-1.12,1.62-1.47.62-.36,1.21-.54,1.79-.54.62,0,1.1.17,1.45.52.35.34.53.78.53,1.32,0,.42-.14,1.34-.42,2.76l-2.47,12.29h5.3l1.87-9.22c.53-2.63,1.17-4.46,1.92-5.49,1.03-1.44,2.21-2.16,3.53-2.16.65,0,1.14.16,1.47.49.33.32.49.77.49,1.33,0,.2-.15,1.08-.46,2.64l-2.51,12.42h5.3l2.51-12.42c.34-1.72.52-2.93.52-3.64,0-1.43-.44-2.58-1.31-3.44s-2.09-1.3-3.66-1.3c-1.37,0-2.68.34-3.95,1.03-1.27.69-2.24,1.54-2.92,2.56-.22-1.12-.73-2-1.53-2.64s-1.94-.96-3.42-.96Z"/>
    <path class="cls-2" d="M144.19,11.7c1.1,0,1.97.38,2.62,1.13.65.75.98,1.88.98,3.39,0,.13,0,.31-.02.55h-8.29c.31-1.67.89-2.93,1.76-3.79.87-.85,1.85-1.28,2.95-1.28ZM144.77,7.78c-3.77,0-6.67,1.47-8.7,4.4-1.49,2.17-2.23,4.64-2.23,7.42s.82,5.13,2.47,6.86c1.65,1.73,3.79,2.59,6.43,2.59,1.92,0,3.65-.49,5.2-1.48,1.55-.99,2.78-2.47,3.71-4.45l-4.75-.82c-.99,1.89-2.36,2.83-4.12,2.83-1.07,0-1.98-.41-2.73-1.24-.74-.83-1.11-1.92-1.11-3.27,0-.11,0-.28.02-.5h13.3c.25-1.06.37-2.25.37-3.58,0-2.77-.71-4.92-2.12-6.46-1.42-1.54-3.32-2.31-5.73-2.31Z"/>
    <path class="cls-2" d="M199.68,7.78c-2.15,0-4.16,1.47-6,4.42l.79-3.94h-4.95l-4.1,20.32h5.3l1.29-6.37c.52-2.59,1.04-4.48,1.57-5.67.53-1.19,1.26-2.15,2.2-2.86.94-.71,1.87-1.07,2.78-1.07.54,0,1.05.09,1.53.27l2.03-4.5c-.87-.4-1.69-.59-2.46-.59Z"/>
    <path class="cls-1" d="M33.74,11.15c1.3,0,2.36.43,3.18,1.28.83.85,1.24,1.98,1.24,3.39,0,2.84-.79,5.24-2.37,7.22-1.11,1.4-2.48,2.1-4.11,2.1-1.3,0-2.38-.46-3.24-1.39s-1.29-2.18-1.29-3.76c0-1.27.28-2.67.83-4.18.55-1.52,1.33-2.67,2.32-3.47,1-.8,2.14-1.2,3.42-1.2ZM33.72,6.67c-3.75,0-6.78,1.22-9.08,3.65-2.3,2.43-3.45,5.68-3.45,9.76,0,1.74.39,3.38,1.18,4.9.79,1.52,1.99,2.7,3.59,3.53s3.45,1.25,5.52,1.25c3.83,0,6.89-1.3,9.17-3.9s3.42-5.69,3.42-9.26c0-3.03-.91-5.44-2.74-7.23-1.83-1.79-4.37-2.69-7.62-2.69Z"/>
    <path class="cls-1" d="M222.94,11.51c1.3,0,2.36.43,3.18,1.28.83.85,1.24,1.98,1.24,3.39,0,2.84-.79,5.24-2.37,7.22-1.11,1.4-2.48,2.1-4.11,2.1-1.3,0-2.38-.46-3.24-1.39s-1.29-2.18-1.29-3.76c0-1.27.28-2.67.83-4.18.55-1.52,1.33-2.67,2.32-3.47,1-.8,2.14-1.2,3.42-1.2ZM222.92,7.02c-3.75,0-6.78,1.22-9.08,3.65-2.3,2.43-3.45,5.68-3.45,9.76,0,1.74.39,3.38,1.18,4.9.79,1.52,1.99,2.7,3.59,3.53,1.61.83,3.45,1.25,5.52,1.25,3.83,0,6.89-1.3,9.17-3.9,2.28-2.6,3.42-5.69,3.42-9.26,0-3.03-.91-5.44-2.74-7.23-1.83-1.79-4.37-2.69-7.62-2.69Z"/>
    <path class="cls-1" d="M11.15,0l-6.69,4.03-.71,3.46H.9l-.9,4.33h2.83l-1.81,8.69c-.5,2.4-.75,3.93-.75,4.6,0,1.41.47,2.51,1.4,3.31.94.79,2.43,1.19,4.5,1.19,1.06,0,2.09-.1,3.09-.31l.92-4.33h0c-1.03.09-1.68.14-1.93.14-.75,0-1.26-.12-1.55-.37-.28-.25-.43-.6-.43-1.05,0-.23.17-1.17.51-2.81l1.89-9.05h3.58l.9-4.33h-3.56l1.57-7.49Z"/>
    <path class="cls-1" d="M170.23.62l-1.04,4.99h5.51l1.04-4.99h-5.51ZM168.62,8.38l-4.26,20.4h5.51l4.26-20.4h-5.51Z"/>
  </g>
</svg>